<svg xmlns="http://www.w3.org/2000/svg" width="21" height="22" viewBox="0 0 21 22">
  <defs>
    <style>
      .cls-1 {
        fill: #5a477d;
        fill-rule: evenodd;
      }
    </style>
  </defs>
  <path id="date.svg" class="cls-1" d="M892.625,1171.47H890v-1.1a0.369,0.369,0,0,0-.375-0.37H887a0.369,0.369,0,0,0-.375.37v1.1h-8.25v-1.1A0.369,0.369,0,0,0,878,1170h-2.625a0.369,0.369,0,0,0-.375.37v1.1h-2.625a0.367,0.367,0,0,0-.375.36v19.8a0.369,0.369,0,0,0,.375.37h20.25a0.369,0.369,0,0,0,.375-0.37v-19.8A0.367,0.367,0,0,0,892.625,1171.47Zm-5.25-.74h1.875v2.2h-1.875v-2.2Zm-11.625,0h1.875v2.2H875.75v-2.2Zm-3,1.47H875v1.1a0.375,0.375,0,0,0,.375.37H878a0.375,0.375,0,0,0,.375-0.37v-1.1h8.25v1.1a0.375,0.375,0,0,0,.375.37h2.625a0.375,0.375,0,0,0,.375-0.37v-1.1h2.25v3.3h-19.5v-3.3Zm0,19.07v-15.04h19.5v15.04h-19.5Zm12.75-12.84H875.375v10.64h14.25v-10.64H885.5Zm-2.625.74H885.5v2.56h-2.625v-2.56Zm2.625,5.86h-2.625v-2.56H885.5v2.56Zm-6-2.56h2.625v2.56H879.5v-2.56Zm0-3.3h2.625v2.56H879.5v-2.56Zm-3.375,0h2.625v2.56h-2.625v-2.56Zm0,3.3h2.625v2.56h-2.625v-2.56Zm2.625,5.86h-2.625v-2.56h2.625v2.56Zm3.375,0H879.5v-2.56h2.625v2.56Zm3.375,0h-2.625v-2.56H885.5v2.56Zm3.375,0H886.25v-2.56h2.625v2.56Zm0-3.3H886.25v-2.56h2.625v2.56Zm0-5.86v2.56H886.25v-2.56h2.625Z" transform="translate(-872 -1170)"/>
</svg>
