<svg xmlns="http://www.w3.org/2000/svg" width="19" height="22" viewBox="0 0 19 22">
  <defs>
    <style>
      .cls-1 {
        fill: #5a477d;
        fill-rule: evenodd;
      }
    </style>
  </defs>
  <path id="men.svg" class="cls-1" d="M637.419,1181.85h0.148a4.28,4.28,0,0,0,3.261-1.39c1.781-1.97,1.485-5.36,1.452-5.69a4.639,4.639,0,0,0-2.243-4.13,5.285,5.285,0,0,0-2.488-.64H637.47a5.226,5.226,0,0,0-2.489.62,4.659,4.659,0,0,0-2.271,4.15c-0.032.33-.328,3.72,1.453,5.69A4.261,4.261,0,0,0,637.419,1181.85Zm-3.474-6.96c0-.02,0-0.03,0-0.04,0.152-3.26,2.507-3.62,3.515-3.62h0.056c1.249,0.03,3.372.53,3.515,3.62a0.086,0.086,0,0,0,.005.04c0,0.03.328,3.13-1.143,4.76a3.044,3.044,0,0,1-2.382.97H637.47a3.035,3.035,0,0,1-2.378-.97C633.626,1178.03,633.941,1174.92,633.945,1174.89ZM647,1187.48v-0.02c0-.03,0-0.07,0-0.11-0.028-.9-0.088-3.01-2.1-3.69-0.013,0-.032-0.01-0.046-0.01a13.462,13.462,0,0,1-3.839-1.72,0.625,0.625,0,0,0-.87.15,0.6,0.6,0,0,0,.153.85,14.266,14.266,0,0,0,4.223,1.9c1.078,0.38,1.2,1.52,1.231,2.55a1.106,1.106,0,0,0,0,.12,8.176,8.176,0,0,1-.1,1.41,18.771,18.771,0,0,1-16.314-.01,7.645,7.645,0,0,1-.1-1.41c0-.03,0-0.07,0-0.11,0.033-1.04.153-2.17,1.231-2.55a14.557,14.557,0,0,0,4.223-1.9,0.613,0.613,0,0,0,.152-0.86,0.632,0.632,0,0,0-.869-0.15,13.021,13.021,0,0,1-3.839,1.72,0.443,0.443,0,0,0-.047.02c-2.007.68-2.067,2.79-2.1,3.68a0.963,0.963,0,0,1,0,.12v0.01a6.969,6.969,0,0,0,.236,2.07,0.624,0.624,0,0,0,.241.28,19.788,19.788,0,0,0,18.058,0,0.646,0.646,0,0,0,.24-0.28A7.223,7.223,0,0,0,647,1187.48Z" transform="translate(-628 -1170)"/>
</svg>
